<svg version="1" xmlns="http://www.w3.org/2000/svg" width="800" height="800" viewBox="0 0 600.000000 600.000000"><path d="M0 300v300h600V0H0v300zm198.5-161c.4.6 1.1.8 1.6.4 1.2-.7 7.7 1.5 15.7 5.3 5.5 2.6 11.4 6.7 17.1 12.1 1.8 1.8 3.7 3.2 4.3 3.2.5 0 .7.4.4.9-.3.4.3 1.6 1.4 2.6 1.1 1 2 2.4 2 3.2 0 .7.6 1.3 1.3 1.3 2.3 0 13.4 24.9 11.9 26.5-.4.4.8.5 2.6.3 4.5-.6 3.5 0-11 7.5-15.8 8.1-25.8 15-36.5 25.1-29.7 28-45.6 70.4-41.3 109.6 1.3 12.2 3 20.4 6 28.2 2.8 7.5 5.4 10 11.1 10.3 2.4.2 8.5.6 13.4.9 16 1.1 17.4 1.5 28 7.9 26.8 16.3 44.7 22.2 70 23.3 35.2 1.6 67.4-10.7 95.5-36.3 4.7-4.2 7.5-6.6 6.2-5.2-1.6 1.9-2.4 4.3-2.8 9-.6 5.7-.4 6.6 1.5 8.3 1.1 1.1 2.1 2.4 2.1 3.1 0 .7.9 2 2.1 3.1 2.1 1.8 8 12.9 9.4 17.4.4 1.4 1.4 3.3 2.3 4.2.8 1 1.2 1.8.9 1.8-.4 0 .2 2.2 1.2 4.9 1 2.8 1.6 5.2 1.3 5.5-.2.3.1 1.2.8 2.1.7.8 1 1.5.7 1.5-.3 0-.1 1.5.4 3.2.6 1.8 1.2 4.4 1.4 5.8 1.3 8.8 1.6 10.7 2.1 12.3 2.7 8.5-13.6 21.1-37.7 29.1-20.4 6.8-28.7 8-54.4 8-25.3 0-32.8-1-52.5-7.4-13.1-4.3-35.6-15.6-47-23.7-11.4-8.2-29.7-26-37.3-36.4-21.1-28.8-30.8-59.6-32.3-102.5-.3-9.3-1-18.7-1.6-20.8-.7-3-3.3-6.2-11.4-14.2-5.7-5.6-10.4-10.7-10.4-11.4 0-.6-.4-.8-1-.5-.5.3-1 0-1-.8 0-.7-.9-2.3-1.9-3.4-1.1-1.2-1.7-2.3-1.5-2.6.3-.3-.4-1-1.5-1.7-1.2-.6-2.1-1.5-2.1-2.1 0-.6-1.2-2.6-2.7-4.6-1.5-1.9-2.8-4.2-2.9-5.1-.2-.8-.8-1.8-1.4-2.2-.7-.4-1-.9-.8-1.1.1-.2-1.3-3.1-3.2-6.4-1.8-3.3-3.5-6.9-3.7-7.9-.2-1.1-.7-2.4-1.1-3-.5-.6-.8-1.8-.7-2.6.1-.8-.6-2.6-1.6-4-7.1-10.5 13.7-41.2 42.8-63.1 4.1-3.1 8.7-6.3 10.2-7 1.4-.8 4.6-2.6 7.1-4 5.6-3.2 15-6.7 19.8-7.5 2.1-.3 3.9-.8 4.1-1 .8-.8 4-.4 4.6.6zm184 24c1 1.1 1.6 2 1.3 2-.3 0-1.3-.9-2.3-2-1-1.1-1.6-2-1.3-2 .3 0 1.3.9 2.3 2zm13 13c1 1.1 1.6 2 1.3 2-.3 0-1.3-.9-2.3-2-1-1.1-1.6-2-1.3-2 .3 0 1.3.9 2.3 2zm34.3 69c0 1.4-.6 0-1.3-3-.8-3-1.4-6-1.4-6.5.2-2 2.7 7.1 2.7 9.5zm2.1 11.4c.1 5.7-.6 4.1-1.2-2.9-.4-3.9-.3-5.1.2-3.5.5 1.4.9 4.3 1 6.4zm.8 21.9c-.2 2.3-.3.1-.3-4.8 0-5 .1-6.8.3-4.2.2 2.6.2 6.7 0 9zm-1 13.4c-.3 1-.5.4-.5-1.2 0-1.7.2-2.4.5-1.8.2.7.2 2.1 0 3zm-2 12.5c-.3.8-.6.5-.6-.6-.1-1.1.2-1.7.5-1.3.3.3.4 1.2.1 1.9z"/></svg>